<svg width="244" height="64" viewBox="0 0 244 64" fill="none" xmlns="http://www.w3.org/2000/svg">
<path d="M76.4222 46.5756V17.4491H82.5179V29.2773H95.6379V17.4491H101.734V46.5756H95.6379V34.3033H82.5179V46.5756H76.4222ZM106.681 46.5756V24.9376H112.575V46.5756H106.681ZM109.628 22.1522C108.74 22.1522 107.993 21.8494 107.387 21.2438C106.782 20.6383 106.479 19.9184 106.479 19.0841C106.479 18.2363 106.782 17.5164 107.387 16.9243C107.993 16.3188 108.74 16.016 109.628 16.016C110.516 16.016 111.263 16.3188 111.868 16.9243C112.474 17.5164 112.777 18.2363 112.777 19.0841C112.777 19.9184 112.474 20.6383 111.868 21.2438C111.263 21.8494 110.516 22.1522 109.628 22.1522ZM117.017 46.5756V24.9376H122.911V28.7122H123.032C123.355 27.38 123.941 26.3438 124.788 25.6037C125.636 24.8636 126.692 24.4936 127.957 24.4936C128.28 24.4936 128.59 24.5138 128.886 24.5541C129.182 24.5945 129.438 24.6483 129.653 24.7156V29.9031C129.411 29.8089 129.101 29.7348 128.724 29.681C128.348 29.6137 127.944 29.5801 127.513 29.5801C126.544 29.5801 125.717 29.7685 125.031 30.1453C124.344 30.522 123.819 31.0738 123.456 31.8004C123.093 32.5271 122.911 33.4152 122.911 34.4648V46.5756H117.017ZM141.725 47.0196C139.518 47.0196 137.621 46.5688 136.033 45.6673C134.445 44.7522 133.221 43.4537 132.359 41.7716C131.512 40.0896 131.088 38.098 131.088 35.797V35.7768C131.088 33.4757 131.512 31.4842 132.359 29.8021C133.221 28.1066 134.425 26.8013 135.973 25.8863C137.533 24.9578 139.37 24.4936 141.483 24.4936C143.596 24.4936 145.419 24.9444 146.953 25.8459C148.5 26.7341 149.691 27.9922 150.526 29.6205C151.373 31.2487 151.797 33.1528 151.797 35.3327V37.1493H133.974V33.4354H149.012L146.206 36.9071V34.6464C146.206 33.3815 146.011 32.3252 145.621 31.4775C145.231 30.6162 144.686 29.9703 143.986 29.5397C143.3 29.1091 142.499 28.8938 141.584 28.8938C140.669 28.8938 139.855 29.1159 139.142 29.5599C138.442 30.004 137.89 30.6566 137.486 31.5178C137.096 32.3656 136.901 33.4085 136.901 34.6464V36.9273C136.901 38.1249 137.096 39.1476 137.486 39.9954C137.89 40.8431 138.462 41.4958 139.202 41.9533C139.942 42.3973 140.824 42.6194 141.846 42.6194C142.654 42.6194 143.353 42.4915 143.945 42.2359C144.538 41.9802 145.022 41.6572 145.399 41.267C145.776 40.8768 146.031 40.4798 146.166 40.0761L146.206 39.955H151.616L151.555 40.177C151.394 40.971 151.077 41.7716 150.606 42.579C150.135 43.3864 149.496 44.1265 148.689 44.7993C147.895 45.4721 146.919 46.0104 145.762 46.4141C144.618 46.8178 143.273 47.0196 141.725 47.0196Z" fill="#FF2D55"/>
<path d="M155.836 46.5756V17.4491H174.911V22.4751H161.932V30.2866H173.78V35.1107H161.932V46.5756H155.836ZM178.647 46.5756V17.4491H184.541V46.5756H178.647ZM189.124 46.5756V24.9376H195.018V46.5756H189.124ZM192.071 22.1522C191.183 22.1522 190.436 21.8494 189.831 21.2438C189.225 20.6383 188.923 19.9184 188.923 19.0841C188.923 18.2363 189.225 17.5164 189.831 16.9243C190.436 16.3188 191.183 16.016 192.071 16.016C192.959 16.016 193.706 16.3188 194.312 16.9243C194.917 17.5164 195.22 18.2363 195.22 19.0841C195.22 19.9184 194.917 20.6383 194.312 21.2438C193.706 21.8494 192.959 22.1522 192.071 22.1522ZM209.351 47.0196C207.158 47.0196 205.261 46.5621 203.659 45.6471C202.058 44.732 200.827 43.4335 199.965 41.7514C199.104 40.0559 198.674 38.0509 198.674 35.7364V35.7162C198.674 33.4017 199.104 31.4102 199.965 29.7416C200.84 28.0595 202.071 26.7677 203.659 25.8661C205.261 24.9511 207.138 24.4936 209.291 24.4936C211.255 24.4936 212.958 24.8636 214.397 25.6037C215.837 26.3304 216.961 27.3194 217.768 28.5709C218.589 29.8223 219.04 31.2285 219.121 32.7895V32.9307H213.651L213.61 32.7491C213.435 31.7129 212.991 30.8517 212.278 30.1655C211.565 29.4657 210.596 29.1159 209.371 29.1159C208.416 29.1159 207.582 29.385 206.869 29.9232C206.169 30.448 205.624 31.2083 205.234 32.2041C204.857 33.1864 204.668 34.3639 204.668 35.7364V35.7566C204.668 37.1695 204.857 38.3739 205.234 39.3696C205.624 40.352 206.169 41.1055 206.869 41.6303C207.582 42.1417 208.423 42.3973 209.392 42.3973C210.576 42.3973 211.524 42.0677 212.238 41.4083C212.964 40.7355 213.429 39.8541 213.63 38.7641L213.651 38.5824H219.141V38.7036C219.047 40.278 218.589 41.6909 217.768 42.9423C216.947 44.1938 215.817 45.1895 214.377 45.9297C212.951 46.6563 211.276 47.0196 209.351 47.0196ZM222.675 46.5756V17.4491H228.569V46.5756H222.675ZM236.279 46.5756L229.598 37.008L233.333 32.5271L243.082 46.5756H236.279ZM227.842 40.1972V33.5968H228.69L235.997 24.9376H242.678L232.687 36.3016H231.375L227.842 40.1972Z" fill="#007AFF"/>
<mask id="mask0_2407_796" style="mask-type:luminance" maskUnits="userSpaceOnUse" x="2" y="5" width="60" height="54">
<path d="M2.66666 5.33331H61.3333V58.515H2.66666V5.33331Z" fill="white"/>
</mask>
<g mask="url(#mask0_2407_796)">
<mask id="mask1_2407_796" style="mask-type:luminance" maskUnits="userSpaceOnUse" x="2" y="5" width="60" height="54">
<path d="M2.66666 5.33331H61.3333V58.515H2.66666V5.33331Z" fill="white"/>
</mask>
<g mask="url(#mask1_2407_796)">
<path d="M29.933 9.01142C29.3627 4.40205 27.0818 4.97228 23.6604 6.20778C22.2348 6.73049 20.8092 7.68088 19.051 8.77382C17.2453 9.86677 19.0986 17.7075 19.051 23.6474C19.0035 29.4922 29.3152 29.3022 29.3627 28.4943C29.4102 27.734 29.6003 21.1288 29.6003 20.5586C29.6003 19.9884 30.2181 20.2735 30.6457 19.9409C31.0259 19.6557 30.5032 13.6208 29.933 9.01142ZM25.8463 15.1414C25.181 15.1414 24.6108 14.4761 24.6108 13.6683C24.6108 12.8605 25.181 12.1952 25.8463 12.1952C26.5116 12.1952 27.0818 12.8605 27.0818 13.6683C27.0818 14.4761 26.5116 15.1414 25.8463 15.1414Z" fill="#FF2D55"/>
</g>
<mask id="mask2_2407_796" style="mask-type:luminance" maskUnits="userSpaceOnUse" x="2" y="5" width="60" height="54">
<path d="M2.66666 5.33331H61.3333V58.515H2.66666V5.33331Z" fill="white"/>
</mask>
<g mask="url(#mask2_2407_796)">
<path d="M12.5885 16.1869C13.4913 16.0443 13.1112 23.8375 18.861 28.3043C24.6109 32.7711 29.4103 32.3434 29.6004 36.2875C29.7905 40.2316 30.6933 43.3679 29.6004 43.558C28.5074 43.7481 16.4375 42.9402 12.1133 33.674C7.78903 24.4077 11.448 16.4245 12.5885 16.1869Z" fill="#FF2D55"/>
</g>
<mask id="mask3_2407_796" style="mask-type:luminance" maskUnits="userSpaceOnUse" x="2" y="5" width="60" height="54">
<path d="M2.66666 5.33331H61.3333V58.515H2.66666V5.33331Z" fill="white"/>
</mask>
<g mask="url(#mask3_2407_796)">
<path d="M33.0218 19.9409C33.4019 20.2735 34.0672 19.9884 34.0672 20.5586C34.0672 21.1288 34.2573 27.734 34.3048 28.4943C34.3523 29.2546 45.3293 28.8745 44.6165 23.6474C43.8562 17.755 46.4222 9.86677 44.6165 8.77382C42.8108 7.68088 41.3852 6.68297 40.0071 6.20778C36.5857 4.97228 34.3048 4.40205 33.7346 9.01142C33.1643 13.5733 32.6416 19.6082 33.0218 19.9409ZM36.6333 13.6208C36.6333 12.813 37.2035 12.1477 37.8688 12.1477C38.534 12.1477 39.1043 12.813 39.1043 13.6208C39.1043 14.4286 38.534 15.0939 37.8688 15.0939C37.156 15.0939 36.6333 14.4286 36.6333 13.6208Z" fill="#007AFF"/>
</g>
<mask id="mask4_2407_796" style="mask-type:luminance" maskUnits="userSpaceOnUse" x="2" y="5" width="60" height="54">
<path d="M2.66666 5.33331H61.3333V58.515H2.66666V5.33331Z" fill="white"/>
</mask>
<g mask="url(#mask4_2407_796)">
<path d="M51.079 16.1869C50.1761 16.0443 50.5563 23.8375 44.8065 28.3043C39.0566 32.7711 34.2572 32.3434 34.0671 36.2875C33.877 40.2316 32.9742 43.3679 34.0671 43.558C35.16 43.7481 47.23 42.9402 51.5542 33.674C55.8785 24.4077 52.267 16.4245 51.079 16.1869Z" fill="#007AFF"/>
</g>
<mask id="mask5_2407_796" style="mask-type:luminance" maskUnits="userSpaceOnUse" x="2" y="5" width="60" height="54">
<path d="M2.66666 5.33331H61.3333V58.515H2.66666V5.33331Z" fill="white"/>
</mask>
<g mask="url(#mask5_2407_796)">
<path d="M6.07821 21.6515C7.31371 21.4139 6.791 36.1449 14.5366 42.1323C22.2823 48.1198 28.7449 47.5971 28.9825 52.8717C29.2201 58.1464 30.4556 58.1939 28.9825 58.479C27.5094 58.7641 11.2578 57.6236 5.46046 45.1736C-0.384421 32.7235 4.51007 21.9366 6.07821 21.6515Z" fill="#FF2D55"/>
</g>
<mask id="mask6_2407_796" style="mask-type:luminance" maskUnits="userSpaceOnUse" x="2" y="5" width="60" height="54">
<path d="M2.66666 5.33331H61.3333V58.515H2.66666V5.33331Z" fill="white"/>
</mask>
<g mask="url(#mask6_2407_796)">
<path d="M57.9217 21.6516C56.6862 21.414 56.4962 37.0004 48.7505 42.9878C41.0049 48.9752 34.5422 48.4525 34.3046 53.7271C34.067 59.0018 33.5443 58.194 35.0174 58.4791C36.4905 58.7642 52.7421 57.6237 58.5395 45.1737C64.3844 32.7236 59.4899 21.9367 57.9217 21.6516Z" fill="#007AFF"/>
</g>
</g>
</svg>
